<?xml version="1.0" encoding="UTF-8" standalone="no"?>
<!-- Created with Inkscape (http://www.inkscape.org/) -->
<svg
   xmlns:svg="http://www.w3.org/2000/svg"
   xmlns="http://www.w3.org/2000/svg"
   version="1.0"
   width="271.77112"
   height="287.08218"
   id="svg4171">
  <defs
     id="defs4173" />
  <g
     transform="translate(-254.92897,-152.83803)"
     id="layer1">
    <g
       transform="translate(-237.2301,-187.1353)"
       style="display:inline"
       id="g5011">
      <path
         d="M 564.95528,371.69983 C 564.95528,371.69983 569.37554,373.38894 578.32293,379.17843 C 587.27033,384.96792 594.8542,391.69895 594.95669,391.75226 C 596.74673,389.77808 597.74896,388.57957 599.23685,386.27012 C 603.63658,379.44104 578.27583,365.84943 577.9458,365.85596 L 564.95528,371.69983 z "
         style="fill:#b89b5c;fill-opacity:1;fill-rule:nonzero;stroke:#000000;stroke-width:1.5;stroke-linecap:round;stroke-linejoin:miter;stroke-miterlimit:4;stroke-dashoffset:0;stroke-opacity:1"
         id="path5000" />
      <path
         d="M 591.43118,382.60458 L 591.5411,382.60458 C 593.77621,379.56336 591.72431,378.44165 590.01196,377.35994 L 564.33642,376.3913 C 566.2643,377.72195 564.33907,376.2193 564.33907,376.2193 C 566.2643,377.85728 567.36541,377.59571 564.99921,381.39546 L 565.14712,381.42405 L 591.47221,382.56243"
         style="fill:#7df6a7;fill-opacity:1;fill-rule:evenodd;stroke:#000000;stroke-width:1.5;stroke-linecap:round;stroke-linejoin:miter;stroke-miterlimit:4;stroke-dashoffset:0;stroke-opacity:1;display:inline"
         id="path4703" />
      <path
         d="M 562.5588,466.87273 C 562.5588,466.87273 552.83691,464.12516 544.83948,458.62693 C 536.84206,453.1287 531.07418,445.38489 530.9016,445.23875 C 530.57376,445.41405 528.15277,451.02399 527.52261,453.60444 C 525.42055,462.21216 546.50824,473.65073 546.54533,473.83903 L 562.61859,467.06376"
         style="fill:#b89b5c;fill-opacity:1;fill-rule:evenodd;stroke:#000000;stroke-width:1.5;stroke-linecap:round;stroke-linejoin:miter;stroke-miterlimit:4;stroke-dashoffset:0;stroke-opacity:1"
         id="path4584" />
      <path
         d="M 578.45958,402.55271 L 567.99307,407.58625 L 568.04407,407.54821 L 561.36181,407.51018 L 561.33232,407.48295 C 558.20035,404.40204 561.20482,403.94118 562.31254,402.40872 C 562.31254,402.40872 561.20482,403.94118 562.34358,402.37976 L 578.45958,402.55271 z "
         style="fill:#d67df6;fill-opacity:1;fill-rule:evenodd;stroke:#000000;stroke-width:1.5;stroke-linecap:round;stroke-linejoin:miter;stroke-miterlimit:4;stroke-dashoffset:0;stroke-opacity:1;display:inline"
         id="path4715" />
      <path
         d="M 590.588,395.08601 L 595.94823,390.55841 L 564.13533,389.94278 L 564.20374,389.95244 L 564.20372,394.38214 L 564.20371,394.36261 L 590.588,395.08601 z "
         style="fill:#f67da2;fill-opacity:1;fill-rule:evenodd;stroke:#000000;stroke-width:1.5;stroke-linecap:round;stroke-linejoin:round;stroke-miterlimit:4;stroke-dashoffset:0;stroke-opacity:1;display:inline"
         id="path4707" />
      <path
         d="M 562.27712,409.91232 C 562.27712,409.91232 552.55523,407.16475 544.5578,401.66652 C 536.56038,396.16829 530.7925,388.42448 530.61992,388.27834 C 530.29208,388.45364 527.87109,394.06358 527.24093,396.64403 C 525.13887,405.25175 546.22656,416.69032 546.26365,416.87862 L 562.33691,410.10335"
         style="fill:#b89b5c;fill-opacity:1;fill-rule:evenodd;stroke:#000000;stroke-width:1.5;stroke-linecap:round;stroke-linejoin:miter;stroke-miterlimit:4;stroke-dashoffset:0;stroke-opacity:1"
         id="path4948" />
      <path
         d="M 552.06551,357.82051 C 543.35004,359.69734 527.51747,371.10604 524.92084,378.48165 C 522.6891,387.08488 523.09552,393.70948 525.48057,399.67454 C 538.099,413.76911 539.31123,412.16873 546.22656,416.83536 C 546.22656,416.69032 524.79217,406.13563 527.24093,396.64403 C 530.49406,384.03461 540.93883,375.03174 555.73047,369.77131 L 552.06551,357.82051 z "
         style="fill:#f6d07d;fill-opacity:1;fill-rule:nonzero;stroke:#000000;stroke-width:1.5;stroke-linecap:round;stroke-linejoin:miter;stroke-miterlimit:4;stroke-dashoffset:0;stroke-opacity:1;display:inline"
         id="path5002" />
      <path
         d="M 578.04021,365.84943 C 578.04021,365.84943 603.34568,379.26216 599.23685,386.27012 C 587.22261,406.76144 533.45418,415.34262 525.20252,435.44206 C 522.97078,444.04529 523.3772,450.66989 525.76225,456.63495 C 538.38068,470.72952 539.59291,469.12914 546.50824,473.79577 C 546.50824,473.65073 525.0995,463.10262 527.52261,453.60444 C 535.48827,422.38053 571.61632,430.10714 602.66618,400.34156 C 604.80238,396.94435 605.17982,391.34868 603.13893,383.55453 C 603.23733,379.38602 588.3111,372.9489 578.04021,365.84943 z "
         style="fill:#f6d07d;fill-opacity:1;fill-rule:nonzero;stroke:#000000;stroke-width:1.5;stroke-linecap:round;stroke-linejoin:miter;stroke-miterlimit:4;stroke-dashoffset:0;stroke-opacity:1;display:inline"
         id="path2898" />
      <path
         d="M 564.99921,381.39546 C 567.51332,377.62429 566.2643,377.99261 564.33907,376.35463 C 564.33907,376.35463 566.2643,377.99261 564.33642,376.3913 L 545.02223,374.86035 C 544.98666,374.70061 543.50146,375.69476 541.64065,376.98041 C 539.77983,378.26607 537.54341,379.84322 537.67447,380.04247 L 564.99921,381.39546 z "
         style="fill:#d67df6;fill-opacity:1;fill-rule:evenodd;stroke:#000000;stroke-width:1.5;stroke-linecap:round;stroke-linejoin:miter;stroke-miterlimit:4;stroke-dashoffset:0;stroke-opacity:1;display:inline"
         id="path2902" />
      <path
         d="M 564.13533,389.94278 L 564.20372,394.38214 L 528.25948,393.88808 L 530.317,389.14014 L 564.13533,389.94278 z "
         style="fill:#7d88f6;fill-opacity:1;fill-rule:evenodd;stroke:#000000;stroke-width:1.5;stroke-linecap:round;stroke-linejoin:miter;stroke-miterlimit:4;stroke-dashoffset:0;stroke-opacity:1;display:inline"
         id="path2910" />
      <path
         d="M 561.33232,407.36514 C 558.22984,404.42927 561.79389,403.94118 562.54817,402.40872 C 562.54817,402.40872 561.79389,403.94118 562.57921,402.37976 L 536.05133,402.30934 C 535.04883,403.86122 536.03767,402.33011 536.03767,402.33011 C 535.04883,403.86122 534.63416,405.6794 536.86924,407.50388 L 536.93526,407.51018 L 561.33232,407.36514 z "
         style="fill:#7df6a7;fill-opacity:1;fill-rule:evenodd;stroke:#000000;stroke-width:1.5;stroke-linecap:round;stroke-linejoin:miter;stroke-miterlimit:4;stroke-dashoffset:0;stroke-opacity:1;display:inline"
         id="path2914" />
    </g>
    <g
       transform="translate(-252.20223,-172.46899)"
       style="display:inline"
       id="g4954">
      <path
         d="M 576.6524,409.96797 C 576.6524,409.96797 586.96332,414.72022 595.91071,420.50971 C 604.85811,426.2992 612.44198,433.03023 612.54447,433.08354 C 614.33451,431.10936 615.33674,429.91085 616.82463,427.6014 C 621.22436,420.77232 590.91546,404.11757 591.05668,404.1241 L 576.6524,409.96797 z "
         style="fill:#b89b5c;fill-opacity:1;fill-rule:nonzero;stroke:#000000;stroke-width:1.5;stroke-linecap:round;stroke-linejoin:miter;stroke-miterlimit:4;stroke-dashoffset:0;stroke-opacity:1"
         id="path4956" />
      <path
         d="M 590.91546,404.11757 C 590.91546,404.11757 620.93346,420.59344 616.82463,427.6014 C 604.81039,448.09272 551.04196,456.6739 542.7903,476.77334 C 540.55856,485.37657 540.96498,492.00117 543.35003,497.96623 C 555.96846,512.0608 557.18069,510.46042 564.09602,515.12705 C 564.09602,514.98201 542.68728,504.4339 545.11039,494.93572 C 553.07605,463.71181 589.2041,471.43842 620.25396,441.67284 C 622.39016,438.27563 622.7676,432.67996 620.72671,424.88581 C 620.82511,420.7173 601.18635,411.21704 590.91546,404.11757 z "
         style="fill:#f6d07d;fill-opacity:1;fill-rule:nonzero;stroke:#000000;stroke-width:1.5;stroke-linecap:round;stroke-linejoin:miter;stroke-miterlimit:4;stroke-dashoffset:0;stroke-opacity:1;display:inline"
         id="path4958" />
      <path
         d="M 582.58699,422.72674 C 585.1011,418.95557 583.85208,419.32389 581.92685,417.68591 C 581.92685,417.68591 583.85208,419.32389 581.9242,417.72258 L 562.61001,416.19163 C 562.57444,416.03189 561.08924,417.02604 559.22843,418.31169 C 557.36761,419.59735 555.13119,421.1745 555.26225,421.37375 L 582.58699,422.72674 z "
         style="fill:#d67df6;fill-opacity:1;fill-rule:evenodd;stroke:#000000;stroke-width:1.5;stroke-linecap:round;stroke-linejoin:miter;stroke-miterlimit:4;stroke-dashoffset:0;stroke-opacity:1;display:inline"
         id="path4960" />
      <path
         d="M 578.9201,448.69642 C 575.81762,445.76055 579.38167,445.27246 580.13595,443.74 C 580.13595,443.74 579.38167,445.27246 580.16699,443.71104 L 553.63911,443.64062 C 552.63661,445.1925 553.62545,443.66139 553.62545,443.66139 C 552.63661,445.1925 552.22194,447.01068 554.45702,448.83516 L 554.52304,448.84146 L 578.9201,448.69642 z "
         style="fill:#7df6a7;fill-opacity:1;fill-rule:evenodd;stroke:#000000;stroke-width:1.5;stroke-linecap:round;stroke-linejoin:miter;stroke-miterlimit:4;stroke-dashoffset:0;stroke-opacity:1;display:inline"
         id="path4962" />
      <path
         d="M 581.72311,431.27406 L 581.7915,435.71342 L 545.84726,435.21936 L 547.90478,430.47142 L 581.72311,431.27406 z "
         style="fill:#7d88f6;fill-opacity:1;fill-rule:evenodd;stroke:#000000;stroke-width:1.5;stroke-linecap:round;stroke-linejoin:miter;stroke-miterlimit:4;stroke-dashoffset:0;stroke-opacity:1;display:inline"
         id="path4964" />
      <path
         d="M 609.01896,423.93586 L 609.12888,423.93586 C 611.36399,420.89464 609.31209,419.77293 607.59974,418.69122 L 581.9242,417.72258 C 583.85208,419.05323 581.92685,417.55058 581.92685,417.55058 C 583.85208,419.18856 584.95319,418.92699 582.58699,422.72674 L 582.7349,422.75533 L 609.05999,423.89371"
         style="fill:#7df6a7;fill-opacity:1;fill-rule:evenodd;stroke:#000000;stroke-width:1.5;stroke-linecap:round;stroke-linejoin:miter;stroke-miterlimit:4;stroke-dashoffset:0;stroke-opacity:1;display:inline"
         id="path4966" />
      <path
         d="M 589.32853,411.69936 C 590.76947,410.07458 590.24247,407.58423 588.6326,406.34808 C 588.6326,406.34808 590.24247,407.58423 588.40305,406.27315 L 586.5052,406.03482 L 586.51897,405.9991 L 574.82895,410.78488 L 574.83824,410.83965 L 589.32853,411.69936 z "
         style="fill:#7d88f6;fill-opacity:1;fill-rule:nonzero;stroke:#000000;stroke-width:1.5;stroke-linecap:round;stroke-linejoin:miter;stroke-miterlimit:4;stroke-dashoffset:0;stroke-opacity:1"
         id="path4968" />
      <path
         d="M 580.14658,508.20401 C 580.14658,508.20401 570.42469,505.45644 562.42726,499.95821 C 554.42984,494.45998 548.66196,486.71617 548.48938,486.57003 C 548.16154,486.74533 545.74055,492.35527 545.11039,494.93572 C 543.00833,503.54344 564.09602,514.98201 564.13311,515.17031 L 580.20637,508.39504"
         style="fill:#b89b5c;fill-opacity:1;fill-rule:evenodd;stroke:#000000;stroke-width:1.5;stroke-linecap:round;stroke-linejoin:miter;stroke-miterlimit:4;stroke-dashoffset:0;stroke-opacity:1"
         id="path4970" />
      <path
         d="M 596.04736,443.88399 L 585.58085,448.91753 L 585.63185,448.87949 L 578.94959,448.84146 L 578.9201,448.81423 C 575.78813,445.73332 578.7926,445.27246 579.90032,443.74 C 579.90032,443.74 578.7926,445.27246 579.93136,443.71104 L 596.04736,443.88399 z "
         style="fill:#d67df6;fill-opacity:1;fill-rule:evenodd;stroke:#000000;stroke-width:1.5;stroke-linecap:round;stroke-linejoin:miter;stroke-miterlimit:4;stroke-dashoffset:0;stroke-opacity:1;display:inline"
         id="path4972" />
      <path
         d="M 608.17578,436.41729 L 613.53601,431.88969 L 581.72311,431.27406 L 581.79152,431.28372 L 581.7915,435.71342 L 581.79149,435.69389 L 608.17578,436.41729 z "
         style="fill:#f67da2;fill-opacity:1;fill-rule:evenodd;stroke:#000000;stroke-width:1.5;stroke-linecap:round;stroke-linejoin:round;stroke-miterlimit:4;stroke-dashoffset:0;stroke-opacity:1;display:inline"
         id="path4974" />
    </g>
    <path
       d="M 324.7264,293.96184 C 324.7264,293.96184 335.03732,298.71409 343.98471,304.50358 C 352.93211,310.29307 360.51598,317.0241 360.61847,317.07741 C 362.40851,315.10323 363.41074,313.90472 364.89863,311.59527 C 369.29836,304.76619 338.98946,288.11144 339.13068,288.11797 L 324.7264,293.96184 z "
       style="fill:#b89b5c;fill-opacity:1;fill-rule:nonzero;stroke:#000000;stroke-width:1.5;stroke-linecap:round;stroke-linejoin:miter;stroke-miterlimit:4;stroke-dashoffset:0;stroke-opacity:1"
       id="path4781" />
    <path
       d="M 338.98946,288.11144 C 338.98946,288.11144 369.00746,304.58731 364.89863,311.59527 C 352.88439,332.08659 299.11596,340.66777 290.8643,360.76721 C 288.63256,369.37044 289.03898,375.99504 291.42403,381.9601 C 304.04246,396.05467 296.9005,390.05735 303.81583,394.72398 C 303.81583,394.57894 290.76128,388.42777 293.18439,378.92959 C 301.15005,347.70568 337.2781,355.43229 368.32796,325.66671 C 370.46416,322.2695 370.8416,316.67383 368.80071,308.87968 C 368.89911,304.71117 349.26035,295.21091 338.98946,288.11144 z "
       style="fill:#f6d07d;fill-opacity:1;fill-rule:nonzero;stroke:#000000;stroke-width:1.5;stroke-linecap:round;stroke-linejoin:miter;stroke-miterlimit:4;stroke-dashoffset:0;stroke-opacity:1;display:inline"
       id="path4783" />
    <path
       d="M 330.66099,306.72061 C 333.1751,302.94944 331.92608,303.31776 330.00085,301.67978 C 330.00085,301.67978 331.92608,303.31776 329.9982,301.71645 L 310.68401,300.1855 C 310.64844,300.02576 309.16324,301.01991 307.30243,302.30556 C 305.44161,303.59122 303.20519,305.16837 303.33625,305.36762 L 330.66099,306.72061 z "
       style="fill:#d67df6;fill-opacity:1;fill-rule:evenodd;stroke:#000000;stroke-width:1.5;stroke-linecap:round;stroke-linejoin:miter;stroke-miterlimit:4;stroke-dashoffset:0;stroke-opacity:1;display:inline"
       id="path4785" />
    <path
       d="M 326.9941,332.69029 C 323.89162,329.75442 327.45567,329.26633 328.20995,327.73387 C 328.20995,327.73387 327.45567,329.26633 328.24099,327.70491 L 301.71311,327.63449 C 300.71061,329.18637 301.69945,327.65526 301.69945,327.65526 C 300.71061,329.18637 300.29594,331.00455 302.53102,332.82903 L 302.59704,332.83533 L 326.9941,332.69029 z "
       style="fill:#7df6a7;fill-opacity:1;fill-rule:evenodd;stroke:#000000;stroke-width:1.5;stroke-linecap:round;stroke-linejoin:miter;stroke-miterlimit:4;stroke-dashoffset:0;stroke-opacity:1;display:inline"
       id="path4787" />
    <path
       d="M 329.79711,315.26793 L 329.8655,319.70729 L 293.92126,319.21323 L 295.97878,314.46529 L 329.79711,315.26793 z "
       style="fill:#7d88f6;fill-opacity:1;fill-rule:evenodd;stroke:#000000;stroke-width:1.5;stroke-linecap:round;stroke-linejoin:miter;stroke-miterlimit:4;stroke-dashoffset:0;stroke-opacity:1;display:inline"
       id="path4789" />
    <path
       d="M 357.09296,307.92973 L 357.20288,307.92973 C 359.43799,304.88851 357.38609,303.7668 355.67374,302.68509 L 329.9982,301.71645 C 331.92608,303.0471 330.00085,301.54445 330.00085,301.54445 C 331.92608,303.18243 333.02719,302.92086 330.66099,306.72061 L 330.8089,306.7492 L 357.13399,307.88758"
       style="fill:#7df6a7;fill-opacity:1;fill-rule:evenodd;stroke:#000000;stroke-width:1.5;stroke-linecap:round;stroke-linejoin:miter;stroke-miterlimit:4;stroke-dashoffset:0;stroke-opacity:1;display:inline"
       id="path4791" />
    <path
       d="M 337.40253,295.69323 C 338.84347,294.06845 338.31647,291.5781 336.7066,290.34195 C 336.7066,290.34195 338.31647,291.5781 336.47705,290.26702 L 334.5792,290.02869 L 334.59297,289.99297 L 322.90295,294.77875 L 322.91224,294.83352 L 337.40253,295.69323 z "
       style="fill:#7d88f6;fill-opacity:1;fill-rule:nonzero;stroke:#000000;stroke-width:1.5;stroke-linecap:round;stroke-linejoin:miter;stroke-miterlimit:4;stroke-dashoffset:0;stroke-opacity:1"
       id="path4793" />
    <path
       d="M 344.12136,327.87786 L 333.65485,332.9114 L 333.70585,332.87336 L 327.02359,332.83533 L 326.9941,332.8081 C 323.86213,329.72719 326.8666,329.26633 327.97432,327.73387 C 327.97432,327.73387 326.8666,329.26633 328.00536,327.70491 L 344.12136,327.87786 z "
       style="fill:#d67df6;fill-opacity:1;fill-rule:evenodd;stroke:#000000;stroke-width:1.5;stroke-linecap:round;stroke-linejoin:miter;stroke-miterlimit:4;stroke-dashoffset:0;stroke-opacity:1;display:inline"
       id="path4797" />
    <path
       d="M 356.24978,320.41116 L 361.61001,315.88356 L 329.79711,315.26793 L 329.86552,315.27759 L 329.8655,319.70729 L 329.86549,319.68776 L 356.24978,320.41116 z "
       style="fill:#f67da2;fill-opacity:1;fill-rule:evenodd;stroke:#000000;stroke-width:1.5;stroke-linecap:round;stroke-linejoin:round;stroke-miterlimit:4;stroke-dashoffset:0;stroke-opacity:1;display:inline"
       id="path4799" />
    <path
       d="M 325.50193,350.40181 C 325.50193,350.40181 335.81285,355.15406 344.76024,360.94355 C 353.70764,366.73304 361.29151,373.46407 361.394,373.51738 C 363.18404,371.5432 364.18627,370.34469 365.67416,368.03524 C 370.07389,361.20616 339.76499,344.55141 339.90621,344.55794 L 325.50193,350.40181 z "
       style="fill:#b89b5c;fill-opacity:1;fill-rule:nonzero;stroke:#000000;stroke-width:1.5;stroke-linecap:round;stroke-linejoin:miter;stroke-miterlimit:4;stroke-dashoffset:0;stroke-opacity:1"
       id="path4803" />
    <path
       d="M 331.43652,363.16058 C 333.95063,359.38941 332.70161,359.75773 330.77638,358.11975 C 330.77638,358.11975 332.70161,359.75773 330.77373,358.15642 L 311.45954,356.62547 C 311.42397,356.46573 309.93877,357.45988 308.07796,358.74553 C 306.21714,360.03119 303.98072,361.60834 304.11178,361.80759 L 331.43652,363.16058 z "
       style="fill:#d67df6;fill-opacity:1;fill-rule:evenodd;stroke:#000000;stroke-width:1.5;stroke-linecap:round;stroke-linejoin:miter;stroke-miterlimit:4;stroke-dashoffset:0;stroke-opacity:1;display:inline"
       id="path4807" />
    <path
       d="M 357.86849,364.3697 L 357.97841,364.3697 C 360.21352,361.32848 358.16162,360.20677 356.44927,359.12506 L 330.77373,358.15642 C 332.70161,359.48707 330.77638,357.98442 330.77638,357.98442 C 332.70161,359.6224 333.80272,359.36083 331.43652,363.16058 L 331.58443,363.18917 L 357.90952,364.32755"
       style="fill:#7df6a7;fill-opacity:1;fill-rule:evenodd;stroke:#000000;stroke-width:1.5;stroke-linecap:round;stroke-linejoin:miter;stroke-miterlimit:4;stroke-dashoffset:0;stroke-opacity:1;display:inline"
       id="path4813" />
    <path
       d="M 338.17806,352.1332 C 339.619,350.50842 339.092,348.01807 337.48213,346.78192 C 337.48213,346.78192 339.092,348.01807 337.25258,346.70699 L 335.35473,346.46866 L 335.3685,346.43294 L 323.67848,351.21872 L 323.68777,351.27349 L 338.17806,352.1332 z "
       style="fill:#7d88f6;fill-opacity:1;fill-rule:nonzero;stroke:#000000;stroke-width:1.5;stroke-linecap:round;stroke-linejoin:miter;stroke-miterlimit:4;stroke-dashoffset:0;stroke-opacity:1"
       id="path4815" />
    <path
       d="M 357.02531,376.85113 L 362.38554,372.32353 L 330.57264,371.7079 L 330.64105,371.71756 L 330.64103,376.14726 L 330.64102,376.12773 L 357.02531,376.85113 z "
       style="fill:#f67da2;fill-opacity:1;fill-rule:evenodd;stroke:#000000;stroke-width:1.5;stroke-linecap:round;stroke-linejoin:round;stroke-miterlimit:4;stroke-dashoffset:0;stroke-opacity:1;display:inline"
       id="path4821" />
    <path
       d="M 314.47947,386.20752 C 306.48205,380.70929 296.73596,370.71004 296.56338,370.5639 C 296.23554,370.7392 293.81455,376.34914 293.18439,378.92959 C 291.08233,387.53731 303.74894,394.38257 303.78603,394.57087 L 314.47947,386.20752 z "
       style="fill:#b89b5c;fill-opacity:1;fill-rule:evenodd;stroke:#000000;stroke-width:1.5;stroke-linecap:round;stroke-linejoin:miter;stroke-miterlimit:4;stroke-dashoffset:0;stroke-opacity:1"
       id="path4909" />
    <path
       d="M 339.76499,344.55141 C 339.76499,344.55141 369.26969,360.75059 365.67416,368.03524 C 362.97512,373.50357 347.15278,382.07771 339.55902,386.76069 L 349.14157,396.8963 C 357.76678,392.05405 364.87499,386.80967 369.10349,382.10668 C 371.23969,378.70947 371.61713,373.1138 369.57624,365.31965 C 369.67464,361.15114 350.03588,351.65088 339.76499,344.55141 z "
       style="fill:#f6d07d;fill-opacity:1;fill-rule:nonzero;stroke:#000000;stroke-width:1.5;stroke-linecap:round;stroke-linejoin:miter;stroke-miterlimit:4;stroke-dashoffset:0;stroke-opacity:1;display:inline"
       id="path4911" />
    <path
       d="M 330.57264,371.7079 L 330.64103,376.14726 L 294.69679,375.6532 L 296.75431,370.90526 L 330.57264,371.7079 z "
       style="fill:#7d88f6;fill-opacity:1;fill-rule:evenodd;stroke:#000000;stroke-width:1.5;stroke-linecap:round;stroke-linejoin:miter;stroke-miterlimit:4;stroke-dashoffset:0;stroke-opacity:1;display:inline"
       id="path4811" />
    <path
       d="M 430.39055,206.17881 L 430.50047,206.17881 L 430.48656,200.93417 L 403.80087,200.72314 L 403.95858,206.23238 L 430.43158,206.13665"
       style="fill:#7df6a7;fill-opacity:1;fill-rule:evenodd;stroke:#000000;stroke-width:1.5;stroke-linecap:round;stroke-linejoin:miter;stroke-miterlimit:4;stroke-dashoffset:0;stroke-opacity:1;display:inline"
       id="path4238" />
    <path
       d="M 430.59638,233.24371 L 430.43867,226.21925 L 403.80087,226.45606 L 404.02925,232.90088 L 430.59638,233.24371 z "
       style="fill:#d67df6;fill-opacity:1;fill-rule:evenodd;stroke:#000000;stroke-width:1.5;stroke-linecap:round;stroke-linejoin:miter;stroke-miterlimit:4;stroke-dashoffset:0;stroke-opacity:1;display:inline"
       id="path4240" />
    <path
       d="M 430.001,261.45536 L 430.05793,255.16 L 403.80087,254.7969 L 404.12181,254.80656 L 403.86926,261.50911 L 430.001,261.45536 z "
       style="fill:#f67da2;fill-opacity:1;fill-rule:evenodd;stroke:#000000;stroke-width:1.5;stroke-linecap:round;stroke-linejoin:round;stroke-miterlimit:4;stroke-dashoffset:0;stroke-opacity:1;display:inline"
       id="path4242" />
    <path
       d="M 430.04306,283.33428 L 430.11145,290.04648 L 404.01619,290.05749 L 403.80087,283.28925 L 430.04306,283.33428 z "
       style="fill:#7d88f6;fill-opacity:1;fill-rule:evenodd;stroke:#000000;stroke-width:1.5;stroke-linecap:round;stroke-linejoin:miter;stroke-miterlimit:4;stroke-dashoffset:0;stroke-opacity:1;display:inline"
       id="path4244" />
    <path
       d="M 433.50401,336.92379 L 400.31292,336.91967 L 400.26534,350.96997 L 433.57649,350.94532 L 433.50401,336.92379 z "
       style="fill:#f6d07d;fill-opacity:1;fill-rule:nonzero;stroke:#000000;stroke-width:1.49999988;stroke-linecap:round;stroke-linejoin:miter;stroke-miterlimit:4;stroke-dashoffset:0;stroke-opacity:1;display:inline"
       id="path4250" />
    <text
       x="435.37573"
       y="207.36958"
       style="font-size:12px;font-style:normal;font-weight:normal;fill:#000000;fill-opacity:1;stroke:none;stroke-width:1px;stroke-linecap:butt;stroke-linejoin:miter;stroke-opacity:1;font-family:Arial"
       id="text4279"
       xml:space="preserve"><tspan
         x="435.37573"
         y="207.36958"
         id="tspan4281">= Adenine</tspan></text>
    <text
       x="435.37573"
       y="234.13861"
       style="font-size:12px;font-style:normal;font-weight:normal;fill:#000000;fill-opacity:1;stroke:none;stroke-width:1px;stroke-linecap:butt;stroke-linejoin:miter;stroke-opacity:1;font-family:Arial"
       id="text4283"
       xml:space="preserve"><tspan
         x="435.37573"
         y="234.13861"
         id="tspan4285">= Thymine</tspan></text>
    <text
       x="435.04742"
       y="262.01358"
       style="font-size:12px;font-style:normal;font-weight:normal;fill:#000000;fill-opacity:1;stroke:none;stroke-width:1px;stroke-linecap:butt;stroke-linejoin:miter;stroke-opacity:1;font-family:Arial"
       id="text4287"
       xml:space="preserve"><tspan
         x="435.04742"
         y="262.01358"
         id="tspan4289">= Cytosine</tspan></text>
    <text
       x="435.04742"
       y="290.65271"
       style="font-size:12px;font-style:normal;font-weight:normal;fill:#000000;fill-opacity:1;stroke:none;stroke-width:1px;stroke-linecap:butt;stroke-linejoin:miter;stroke-opacity:1;font-family:Arial"
       id="text4291"
       xml:space="preserve"><tspan
         x="435.04742"
         y="290.65271"
         id="tspan4293">= Guanine</tspan></text>
    <text
       x="437.21487"
       y="347.931"
       style="font-size:12px;font-style:normal;font-weight:normal;fill:#000000;fill-opacity:1;stroke:none;stroke-width:1px;stroke-linecap:butt;stroke-linejoin:miter;stroke-opacity:1;font-family:Arial"
       id="text4295"
       xml:space="preserve"><tspan
         x="437.21487"
         y="347.931"
         id="tspan4297">= Phosphate</tspan><tspan
         x="437.21487"
         y="362.931"
         id="tspan4299">    backbone</tspan></text>
    <text
       x="307.59146"
       y="418.49146"
       style="font-size:18px;font-style:normal;font-weight:normal;fill:#000000;fill-opacity:1;stroke:none;stroke-width:1px;stroke-linecap:butt;stroke-linejoin:miter;stroke-opacity:1;font-family:Arial"
       id="text4301"
       xml:space="preserve"><tspan
         x="307.59146"
         y="418.49146"
         id="tspan4303">DNA</tspan></text>
    <rect
       width="271.77112"
       height="287.08218"
       rx="0.4548682"
       x="254.92897"
       y="152.83803"
       style="fill:none;fill-rule:evenodd;stroke:none;stroke-width:1px;stroke-linecap:butt;stroke-linejoin:miter;stroke-opacity:1"
       id="rect4307" />
  </g>
</svg>
